<svg preserveAspectRatio="none" overflow="visible" style="display: block;" width="24" height="24" viewBox="0 0 24 24" fill="none" xmlns="http://www.w3.org/2000/svg">
<g id="Icon / watch">
<g id="Vector">
<path d="M17.25 12C17.25 9.1005 14.8995 6.75 12 6.75C9.10051 6.75 6.75 9.1005 6.75 12C6.75 14.8995 9.10051 17.25 12 17.25C14.8995 17.25 17.25 14.8995 17.25 12ZM18.75 12C18.75 15.7279 15.7279 18.75 12 18.75C8.27208 18.75 5.25 15.7279 5.25 12C5.25 8.27208 8.27208 5.25 12 5.25C15.7279 5.25 18.75 8.27208 18.75 12Z" fill="#525252"/>
<path d="M11.25 10C11.25 9.58579 11.5858 9.25 12 9.25C12.4142 9.25 12.75 9.58579 12.75 10V11.6895L13.5303 12.4697C13.8232 12.7626 13.8232 13.2374 13.5303 13.5303C13.2374 13.8232 12.7626 13.8232 12.4697 13.5303L11.4697 12.5303C11.3291 12.3896 11.25 12.1989 11.25 12V10Z" fill="#525252"/>
<path d="M13.32 1.24963V1.25159C13.9601 1.24265 14.5837 1.45547 15.0827 1.85705C15.585 2.26148 15.9294 2.83003 16.0553 3.46252L16.8659 7.5133C16.9468 7.91931 16.683 8.31394 16.277 8.39514C15.8709 8.47635 15.4754 8.21336 15.3942 7.80725L14.5846 3.75745C14.5275 3.46973 14.3707 3.20996 14.1422 3.026C13.9138 2.84209 13.6278 2.74407 13.3346 2.74963H10.6256C10.3323 2.74401 10.0465 2.84207 9.81801 3.026C9.58948 3.20996 9.43278 3.46872 9.37563 3.75647L8.59633 7.80139C8.518 8.20807 8.12508 8.47435 7.7184 8.39612C7.31166 8.31778 7.04534 7.92493 7.12367 7.51819L7.90395 3.46838V3.4635C8.02973 2.83057 8.3749 2.26171 8.87758 1.85705C9.37661 1.45549 10.0001 1.24259 10.6403 1.25159V1.24963H13.32Z" fill="#525252"/>
<path d="M15.4747 16.1625C15.5561 15.7566 15.9515 15.4934 16.3575 15.5746C16.7635 15.6561 17.0266 16.0514 16.9454 16.4575L16.1359 20.5073C16.01 21.1398 15.6656 21.7083 15.1632 22.1127C14.6641 22.5145 14.04 22.7282 13.3995 22.7192L10.6798 22.7202C10.0396 22.729 9.41608 22.5144 8.91711 22.1127C8.41466 21.7083 8.07037 21.1399 7.94445 20.5073L7.14465 16.5073C7.06344 16.1012 7.32656 15.7058 7.73254 15.6245C8.13871 15.5432 8.53412 15.8072 8.61535 16.2133L9.41516 20.2133C9.47233 20.5008 9.62927 20.7599 9.85754 20.9438C10.0859 21.1277 10.372 21.2257 10.6652 21.2202H13.4142C13.7075 21.2258 13.9933 21.1277 14.2218 20.9438C14.4502 20.7599 14.607 20.5019 14.6642 20.2143L15.4747 16.1625Z" fill="#525252"/>
</g>
</g>
</svg>
