<svg width="32" height="32" viewBox="0 0 32 32" fill="none" xmlns="http://www.w3.org/2000/svg">
<path d="M18.6263 11.9596C19.0168 11.5691 19.6498 11.5691 20.0404 11.9596L21.3737 13.293C21.7642 13.6835 21.7642 14.3165 21.3737 14.707C20.9832 15.0976 20.3502 15.0976 19.9596 14.707L18.6263 13.3737C18.2358 12.9832 18.2358 12.3502 18.6263 11.9596Z" fill="#D0AD45"/>
<path d="M19.9596 10.6263C20.3502 10.2358 20.9832 10.2358 21.3737 10.6263C21.7642 11.0168 21.7642 11.6498 21.3737 12.0404L16.0404 17.3737C15.6498 17.7642 15.0168 17.7642 14.6263 17.3737C14.2358 16.9832 14.2358 16.3502 14.6263 15.9596L19.9596 10.6263Z" fill="#D0AD45"/>
<path d="M16 3C18.5712 3 21.0848 3.76295 23.2227 5.19141C25.3602 6.61978 27.0265 8.64959 28.0104 11.0247C28.9944 13.4002 29.2516 16.0147 28.75 18.5365C28.2484 21.0581 27.0107 23.3747 25.1927 25.1927C23.3747 27.0107 21.0581 28.2484 18.5365 28.75C16.0147 29.2516 13.4002 28.9944 11.0247 28.0104C8.64959 27.0265 6.61978 25.3602 5.19141 23.2227C3.76295 21.0848 3 18.5712 3 16C3 15.4477 3.44772 15 4 15C4.55228 15 5 15.4477 5 16C5 18.1755 5.64558 20.3018 6.85417 22.1107C8.06285 23.9196 9.78041 25.3302 11.7904 26.1628C13.8003 26.9953 16.0121 27.2134 18.1458 26.7891C20.2796 26.3646 22.2403 25.317 23.7786 23.7786C25.317 22.2403 26.3646 20.2796 26.7891 18.1458C27.2134 16.0121 26.9953 13.8003 26.1628 11.7904C25.3302 9.78041 23.9196 8.06285 22.1107 6.85417C20.3022 5.64582 18.1763 5.00026 16.0013 5C12.9054 5.0109 9.93336 6.21962 7.70833 8.3724L4.70703 11.3737C4.31651 11.7642 3.68349 11.7642 3.29297 11.3737C2.90244 10.9832 2.90244 10.3502 3.29297 9.95964L6.31771 6.9349C8.91443 4.4225 12.3829 3.01224 15.9961 3H16Z" fill="#D0AD45"/>
<path d="M3 4C3 3.44772 3.44772 3 4 3C4.55228 3 5 3.44772 5 4V9.66667H10.6667C11.219 9.66667 11.6667 10.1144 11.6667 10.6667C11.6667 11.219 11.219 11.6667 10.6667 11.6667H4C3.44772 11.6667 3 11.219 3 10.6667V4Z" fill="#D0AD45"/>
<path d="M15 18.6667C15 17.7462 14.2538 17 13.3333 17C12.4129 17 11.6667 17.7462 11.6667 18.6667C11.6667 19.5871 12.4129 20.3333 13.3333 20.3333C14.2538 20.3333 15 19.5871 15 18.6667ZM17 18.6667C17 20.6917 15.3584 22.3333 13.3333 22.3333C11.3083 22.3333 9.66667 20.6917 9.66667 18.6667C9.66667 16.6416 11.3083 15 13.3333 15C15.3584 15 17 16.6416 17 18.6667Z" fill="#D0AD45"/>
</svg>
